<?xml version="1.0" encoding="UTF-8" standalone="no"?>
<!-- Created with Inkscape (http://www.inkscape.org/) -->

<svg
   width="80.833786mm"
   height="93.374664mm"
   viewBox="0 0 80.833786 93.374664"
   version="1.1"
   id="svg1"
   xml:space="preserve"
   inkscape:version="1.4.2 (f4327f4, 2025-05-13)"
   sodipodi:docname="logo.svg"
   inkscape:export-filename="logo_ex.svg"
   inkscape:export-xdpi="96"
   inkscape:export-ydpi="96"
   xmlns:inkscape="http://www.inkscape.org/namespaces/inkscape"
   xmlns:sodipodi="http://sodipodi.sourceforge.net/DTD/sodipodi-0.dtd"
   xmlns="http://www.w3.org/2000/svg"
   xmlns:svg="http://www.w3.org/2000/svg"><sodipodi:namedview
     id="namedview1"
     pagecolor="#ffffff"
     bordercolor="#000000"
     borderopacity="0.25"
     inkscape:showpageshadow="2"
     inkscape:pageopacity="0.0"
     inkscape:pagecheckerboard="0"
     inkscape:deskcolor="#d1d1d1"
     inkscape:document-units="mm"
     showguides="true"
     inkscape:zoom="2"
     inkscape:cx="255.25"
     inkscape:cy="387.25"
     inkscape:window-width="2560"
     inkscape:window-height="1334"
     inkscape:window-x="-11"
     inkscape:window-y="-11"
     inkscape:window-maximized="1"
     inkscape:current-layer="layer1"><sodipodi:guide
       position="40.406942,29.108975"
       orientation="1,0"
       id="guide2"
       inkscape:locked="false" /><sodipodi:guide
       position="29.899246,85.466635"
       orientation="0,-1"
       id="guide4"
       inkscape:locked="false" /><sodipodi:guide
       position="31.121169,28.600445"
       orientation="0,-1"
       id="guide6"
       inkscape:locked="false" /><inkscape:page
       x="0"
       y="0"
       width="80.833786"
       height="93.374664"
       id="page2"
       margin="0"
       bleed="0" /></sodipodi:namedview><defs
     id="defs1" /><g
     inkscape:label="Layer 1"
     inkscape:groupmode="layer"
     id="layer1"
     style="display:inline"
     transform="translate(-61.961288,-50.089449)"><path
       id="path3"
       style="fill:#ee2737;fill-opacity:1;stroke-width:0.264583"
       d="m 102.38644,50.089449 a 3.504307,3.504307 0 0 0 -3.50422,3.504696 3.504307,3.504307 0 0 0 2.69961,3.410127 l -4.899475,13.978475 -6.864181,-8.740551 a 2.4087667,2.4087667 0 0 0 0.849561,-1.836064 2.4087667,2.4087667 0 0 0 -2.408639,-2.408639 2.4087667,2.4087667 0 0 0 -2.408638,2.408639 2.4087667,2.4087667 0 0 0 2.307869,2.406571 l 4.115511,21.109823 h 10.105882 v 0.0031 h 10.12031 l 4.12068,-21.136178 a 2.4087667,2.4087667 0 0 0 2.25774,-2.403988 2.4087667,2.4087667 0 0 0 -2.40864,-2.408638 2.4087667,2.4087667 0 0 0 -2.40864,2.408638 2.4087667,2.4087667 0 0 0 0.88781,1.868103 l -6.85747,8.732284 -4.90047,-13.981059 a 3.504307,3.504307 0 0 0 2.70009,-3.410644 3.504307,3.504307 0 0 0 -3.50469,-3.504695 z" /><path
       id="path5"
       style="fill:#ee2737;fill-opacity:1;stroke-width:0.264583"
       d="m 102.36998,135.6403 c -0.28939,0 -1.52962,0.91777 -2.662371,1.20716 -1.188133,0.30354 -2.654109,0.339 -2.711979,0.73587 -0.355982,2.47551 5.31056,5.87967 5.37438,5.88078 0.0637,8.3e-4 5.73036,-3.40527 5.37438,-5.88078 -0.0579,-0.39687 -1.52385,-0.43233 -2.71198,-0.73587 -1.13275,-0.28939 -2.37298,-1.20716 -2.66237,-1.20716 z"
       sodipodi:nodetypes="sscccsss" /><path
       d="m 102.36895,87.69904 c -6.4e-4,-1.3e-5 -9.2e-4,1.3e-5 -0.002,0 l 0.0108,31.56138 z"
       style="display:inline;fill:#ee2737;stroke-width:0.264583"
       id="path12" /><path
       d="m 62.623568,50.503377 c -1.65419,8.96621 0.311609,15.750977 0.311609,15.750977 1.63022,11.938965 15.342965,22.487178 21.000785,27.233996 -6.61678,8.00726 -9.804844,15.96681 -8.366414,24.78918 1.43843,8.82237 13.209355,14.38439 16.469795,15.82281 3.26044,1.43844 7.995517,2.40909 9.505877,-0.39584 0,0 -3.271891,-2.28736 -3.140891,-5.54953 0.101911,-2.53774 2.683091,-1.44634 3.971851,-1.46813 6.2e-4,-1e-5 10e-4,1e-5 0.002,0 6.1e-4,1e-5 0.001,-1e-5 0.002,0 1.28877,0.0218 3.86993,-1.06961 3.97185,1.46813 0.131,3.26217 -3.14089,5.54953 -3.14089,5.54953 1.51036,2.80493 6.24544,1.83428 9.50588,0.39584 3.26044,-1.43842 15.03138,-7.00044 16.4698,-15.82281 1.43843,-8.82237 -1.75014,-16.78192 -8.36693,-24.78918 5.65782,-4.746818 19.37108,-15.295031 21.0013,-27.233996 0,0 1.9658,-6.784767 0.31161,-15.750977 -5.13039,2.13367 -13.3533,6.592954 -19.39469,16.853752 -6.04141,10.260797 -8.2951,23.326741 -8.2951,23.326741 0,0 -5.27477,-2.846314 -12.07419,-2.98483 l 0.009,31.56138 -0.0109,-31.56138 c 6.3e-4,1.3e-5 9.8e-4,-1.3e-5 0.002,0 v -10e-4 c -6.800343,0.138025 -12.056116,2.985864 -12.056116,2.985864 0,0 -2.253691,-13.065944 -8.295101,-23.326741 C 75.976563,57.096297 67.753968,52.637047 62.623568,50.503377 Z m 25.406718,54.004973 c 1.122046,-0.04 2.52871,0.58574 3.397725,1.59577 0.653613,0.75968 2.560784,3.30361 2.647384,8.41395 0.004,0.23391 -0.201496,0.34717 -0.342615,0.36949 -3.340364,0.29769 -6.031042,-0.72091 -7.607804,-3.961 -1.234898,-2.5376 -0.736178,-5.13809 0.908988,-6.14588 0.280314,-0.17171 0.622306,-0.25899 0.996322,-0.27233 z m 28.155904,0 c 0.37402,0.0133 0.71652,0.10062 0.99684,0.27233 1.64516,1.00779 2.14337,3.60828 0.90847,6.14588 -1.57676,3.24009 -4.26744,4.25869 -7.6078,3.961 -0.14112,-0.0223 -0.3461,-0.13558 -0.3421,-0.36949 0.0866,-5.11034 1.99324,-7.65427 2.64686,-8.41395 0.86901,-1.01003 2.27568,-1.63578 3.39773,-1.59577 z"
       style="display:inline;fill:#ee2737;stroke-width:0.264583"
       id="path14" /><path
       d="m 102.36895,87.69904 c -0.001,-1.3e-5 -0.001,1.3e-5 -0.002,0 l 0.0109,31.56138 z"
       style="fill:#ffffff;fill-opacity:0.265509;stroke-width:0.264583"
       id="path15" /></g></svg>
